<mxfile host="Electron" modified="2023-10-08T05:30:37.940Z" agent="Mozilla/5.0 (Windows NT 10.0; Win64; x64) AppleWebKit/537.36 (KHTML, like Gecko) draw.io/22.0.2 Chrome/114.0.5735.289 Electron/25.8.4 Safari/537.36" etag="yWyTlZRAP8xWQi9jt1ba" version="22.0.2" type="device">
  <diagram name="Page-1" id="bnQXppLlO3noGNJgmtwU">
    <mxGraphModel dx="400" dy="516" grid="1" gridSize="10" guides="1" tooltips="1" connect="1" arrows="1" fold="1" page="1" pageScale="1" pageWidth="850" pageHeight="1100" background="none" math="0" shadow="0">
      <root>
        <mxCell id="0" />
        <mxCell id="1" parent="0" />
        <mxCell id="MP6jbC_VziZB7eXF6YHo-5" value="" style="edgeStyle=orthogonalEdgeStyle;rounded=0;orthogonalLoop=1;jettySize=auto;html=1;strokeColor=#000000;" parent="1" source="MP6jbC_VziZB7eXF6YHo-3" target="MP6jbC_VziZB7eXF6YHo-4" edge="1">
          <mxGeometry relative="1" as="geometry" />
        </mxCell>
        <mxCell id="MP6jbC_VziZB7eXF6YHo-3" value="&lt;font style=&quot;font-size: 13px;&quot; color=&quot;#000000&quot;&gt;Mulai&lt;/font&gt;" style="ellipse;whiteSpace=wrap;html=1;fillColor=#FFFFFF;strokeColor=#000000;" parent="1" vertex="1">
          <mxGeometry x="100" y="170" width="80" height="40" as="geometry" />
        </mxCell>
        <mxCell id="MP6jbC_VziZB7eXF6YHo-7" value="" style="edgeStyle=orthogonalEdgeStyle;rounded=0;orthogonalLoop=1;jettySize=auto;html=1;strokeColor=#000000;" parent="1" source="MP6jbC_VziZB7eXF6YHo-4" target="MP6jbC_VziZB7eXF6YHo-6" edge="1">
          <mxGeometry relative="1" as="geometry" />
        </mxCell>
        <mxCell id="MP6jbC_VziZB7eXF6YHo-4" value="&lt;font color=&quot;#000000&quot;&gt;Studi Literatur&lt;/font&gt;" style="rounded=0;whiteSpace=wrap;html=1;strokeColor=#000000;fillColor=#FFFFFF;" parent="1" vertex="1">
          <mxGeometry x="85" y="240" width="110" height="30" as="geometry" />
        </mxCell>
        <mxCell id="MP6jbC_VziZB7eXF6YHo-10" value="" style="edgeStyle=orthogonalEdgeStyle;rounded=0;orthogonalLoop=1;jettySize=auto;html=1;strokeColor=#000000;" parent="1" source="MP6jbC_VziZB7eXF6YHo-6" target="MP6jbC_VziZB7eXF6YHo-8" edge="1">
          <mxGeometry relative="1" as="geometry" />
        </mxCell>
        <mxCell id="MP6jbC_VziZB7eXF6YHo-6" value="&lt;font color=&quot;#000000&quot;&gt;Studi Bimbingan&lt;/font&gt;" style="rounded=0;whiteSpace=wrap;html=1;strokeColor=#000000;fillColor=#FFFFFF;" parent="1" vertex="1">
          <mxGeometry x="85" y="300" width="110" height="30" as="geometry" />
        </mxCell>
        <mxCell id="MP6jbC_VziZB7eXF6YHo-12" value="" style="edgeStyle=orthogonalEdgeStyle;rounded=0;orthogonalLoop=1;jettySize=auto;html=1;strokeColor=#000000;" parent="1" source="MP6jbC_VziZB7eXF6YHo-8" target="MP6jbC_VziZB7eXF6YHo-11" edge="1">
          <mxGeometry relative="1" as="geometry" />
        </mxCell>
        <mxCell id="MP6jbC_VziZB7eXF6YHo-8" value="&lt;font color=&quot;#000000&quot;&gt;Perancangan Sistem&lt;/font&gt;" style="rounded=0;whiteSpace=wrap;html=1;strokeColor=#000000;fillColor=#FFFFFF;" parent="1" vertex="1">
          <mxGeometry x="77.5" y="360" width="125" height="40" as="geometry" />
        </mxCell>
        <mxCell id="gdoQCRrOw-w3T2fE6TBc-3" value="" style="edgeStyle=orthogonalEdgeStyle;rounded=0;orthogonalLoop=1;jettySize=auto;html=1;strokeColor=#000000;" edge="1" parent="1" source="MP6jbC_VziZB7eXF6YHo-11" target="gdoQCRrOw-w3T2fE6TBc-2">
          <mxGeometry relative="1" as="geometry" />
        </mxCell>
        <mxCell id="gdoQCRrOw-w3T2fE6TBc-35" style="edgeStyle=orthogonalEdgeStyle;shape=connector;rounded=0;orthogonalLoop=1;jettySize=auto;html=1;entryX=0;entryY=0.5;entryDx=0;entryDy=0;labelBackgroundColor=default;strokeColor=#000000;align=center;verticalAlign=middle;fontFamily=Helvetica;fontSize=11;fontColor=default;endArrow=classic;" edge="1" parent="1" source="MP6jbC_VziZB7eXF6YHo-11" target="MP6jbC_VziZB7eXF6YHo-4">
          <mxGeometry relative="1" as="geometry">
            <Array as="points">
              <mxPoint x="40" y="455" />
              <mxPoint x="40" y="255" />
            </Array>
          </mxGeometry>
        </mxCell>
        <mxCell id="MP6jbC_VziZB7eXF6YHo-11" value="&lt;font color=&quot;#000000&quot;&gt;Perancangan &lt;br&gt;Berhasil?&lt;/font&gt;" style="rhombus;whiteSpace=wrap;html=1;fillColor=#FFFFFF;strokeColor=#000000;" parent="1" vertex="1">
          <mxGeometry x="72.5" y="420" width="135" height="70" as="geometry" />
        </mxCell>
        <mxCell id="MP6jbC_VziZB7eXF6YHo-13" value="&lt;font color=&quot;#000000&quot;&gt;X&lt;/font&gt;" style="ellipse;whiteSpace=wrap;html=1;aspect=fixed;fillColor=#FFFFFF;strokeColor=#000000;direction=west;" parent="1" vertex="1">
          <mxGeometry x="120" y="560" width="40" height="40" as="geometry" />
        </mxCell>
        <mxCell id="gdoQCRrOw-w3T2fE6TBc-30" style="edgeStyle=orthogonalEdgeStyle;shape=connector;rounded=0;orthogonalLoop=1;jettySize=auto;html=1;entryX=0.5;entryY=0;entryDx=0;entryDy=0;labelBackgroundColor=default;strokeColor=#000000;align=center;verticalAlign=middle;fontFamily=Helvetica;fontSize=11;fontColor=default;endArrow=classic;" edge="1" parent="1" source="MP6jbC_VziZB7eXF6YHo-15" target="gdoQCRrOw-w3T2fE6TBc-1">
          <mxGeometry relative="1" as="geometry" />
        </mxCell>
        <mxCell id="MP6jbC_VziZB7eXF6YHo-15" value="&lt;font color=&quot;#000000&quot;&gt;X&lt;/font&gt;" style="ellipse;whiteSpace=wrap;html=1;aspect=fixed;fillColor=#FFFFFF;strokeColor=#000000;" parent="1" vertex="1">
          <mxGeometry x="377.5" y="170" width="40" height="40" as="geometry" />
        </mxCell>
        <mxCell id="gdoQCRrOw-w3T2fE6TBc-29" style="edgeStyle=orthogonalEdgeStyle;shape=connector;rounded=0;orthogonalLoop=1;jettySize=auto;html=1;entryX=0.5;entryY=0;entryDx=0;entryDy=0;labelBackgroundColor=default;strokeColor=#000000;align=center;verticalAlign=middle;fontFamily=Helvetica;fontSize=11;fontColor=default;endArrow=classic;" edge="1" parent="1" source="gdoQCRrOw-w3T2fE6TBc-1" target="gdoQCRrOw-w3T2fE6TBc-5">
          <mxGeometry relative="1" as="geometry" />
        </mxCell>
        <mxCell id="gdoQCRrOw-w3T2fE6TBc-1" value="&lt;font color=&quot;#000000&quot;&gt;Pembuatan Aplikasi dan Database&lt;/font&gt;" style="rounded=0;whiteSpace=wrap;html=1;strokeColor=#000000;fillColor=#FFFFFF;" vertex="1" parent="1">
          <mxGeometry x="336.25" y="230" width="122.5" height="50" as="geometry" />
        </mxCell>
        <mxCell id="gdoQCRrOw-w3T2fE6TBc-4" value="" style="edgeStyle=orthogonalEdgeStyle;rounded=0;orthogonalLoop=1;jettySize=auto;html=1;strokeColor=#000000;" edge="1" parent="1" source="gdoQCRrOw-w3T2fE6TBc-2" target="MP6jbC_VziZB7eXF6YHo-13">
          <mxGeometry relative="1" as="geometry" />
        </mxCell>
        <mxCell id="gdoQCRrOw-w3T2fE6TBc-2" value="&lt;font color=&quot;#000000&quot;&gt;Pembuatan Alat&lt;/font&gt;" style="rounded=0;whiteSpace=wrap;html=1;strokeColor=#000000;fillColor=#FFFFFF;" vertex="1" parent="1">
          <mxGeometry x="85" y="510" width="110" height="30" as="geometry" />
        </mxCell>
        <mxCell id="gdoQCRrOw-w3T2fE6TBc-28" style="edgeStyle=orthogonalEdgeStyle;shape=connector;rounded=0;orthogonalLoop=1;jettySize=auto;html=1;entryX=0.5;entryY=0;entryDx=0;entryDy=0;labelBackgroundColor=default;strokeColor=#000000;align=center;verticalAlign=middle;fontFamily=Helvetica;fontSize=11;fontColor=default;endArrow=classic;" edge="1" parent="1" source="gdoQCRrOw-w3T2fE6TBc-5" target="gdoQCRrOw-w3T2fE6TBc-6">
          <mxGeometry relative="1" as="geometry" />
        </mxCell>
        <mxCell id="gdoQCRrOw-w3T2fE6TBc-5" value="&lt;font color=&quot;#000000&quot;&gt;Uji Coba Sistem&lt;/font&gt;" style="rounded=0;whiteSpace=wrap;html=1;strokeColor=#000000;fillColor=#FFFFFF;" vertex="1" parent="1">
          <mxGeometry x="342.5" y="300" width="110" height="30" as="geometry" />
        </mxCell>
        <mxCell id="gdoQCRrOw-w3T2fE6TBc-27" style="edgeStyle=orthogonalEdgeStyle;shape=connector;rounded=0;orthogonalLoop=1;jettySize=auto;html=1;labelBackgroundColor=default;strokeColor=#000000;align=center;verticalAlign=middle;fontFamily=Helvetica;fontSize=11;fontColor=default;endArrow=classic;" edge="1" parent="1" source="gdoQCRrOw-w3T2fE6TBc-6" target="gdoQCRrOw-w3T2fE6TBc-7">
          <mxGeometry relative="1" as="geometry" />
        </mxCell>
        <mxCell id="gdoQCRrOw-w3T2fE6TBc-36" style="edgeStyle=orthogonalEdgeStyle;shape=connector;rounded=0;orthogonalLoop=1;jettySize=auto;html=1;entryX=1;entryY=0.5;entryDx=0;entryDy=0;labelBackgroundColor=default;strokeColor=#000000;align=center;verticalAlign=middle;fontFamily=Helvetica;fontSize=11;fontColor=default;endArrow=classic;" edge="1" parent="1" source="gdoQCRrOw-w3T2fE6TBc-6" target="MP6jbC_VziZB7eXF6YHo-8">
          <mxGeometry relative="1" as="geometry" />
        </mxCell>
        <mxCell id="gdoQCRrOw-w3T2fE6TBc-6" value="&lt;font color=&quot;#000000&quot;&gt;Pengujian&lt;br&gt;Berhasil?&lt;/font&gt;" style="rhombus;whiteSpace=wrap;html=1;fillColor=#FFFFFF;strokeColor=#000000;" vertex="1" parent="1">
          <mxGeometry x="330" y="345" width="135" height="70" as="geometry" />
        </mxCell>
        <mxCell id="gdoQCRrOw-w3T2fE6TBc-26" style="edgeStyle=orthogonalEdgeStyle;shape=connector;rounded=0;orthogonalLoop=1;jettySize=auto;html=1;labelBackgroundColor=default;strokeColor=#000000;align=center;verticalAlign=middle;fontFamily=Helvetica;fontSize=11;fontColor=default;endArrow=classic;" edge="1" parent="1" source="gdoQCRrOw-w3T2fE6TBc-7" target="gdoQCRrOw-w3T2fE6TBc-8">
          <mxGeometry relative="1" as="geometry" />
        </mxCell>
        <mxCell id="gdoQCRrOw-w3T2fE6TBc-7" value="&lt;font color=&quot;#000000&quot;&gt;Pengambilan Data&lt;/font&gt;" style="rounded=0;whiteSpace=wrap;html=1;strokeColor=#000000;fillColor=#FFFFFF;" vertex="1" parent="1">
          <mxGeometry x="342.5" y="440" width="110" height="30" as="geometry" />
        </mxCell>
        <mxCell id="gdoQCRrOw-w3T2fE6TBc-22" value="" style="edgeStyle=orthogonalEdgeStyle;rounded=0;orthogonalLoop=1;jettySize=auto;html=1;strokeColor=#000000;" edge="1" parent="1" source="gdoQCRrOw-w3T2fE6TBc-8" target="gdoQCRrOw-w3T2fE6TBc-9">
          <mxGeometry relative="1" as="geometry" />
        </mxCell>
        <mxCell id="gdoQCRrOw-w3T2fE6TBc-8" value="&lt;font color=&quot;#000000&quot;&gt;Analisa Hasil&lt;/font&gt;" style="rounded=0;whiteSpace=wrap;html=1;strokeColor=#000000;fillColor=#FFFFFF;" vertex="1" parent="1">
          <mxGeometry x="342.5" y="490" width="110" height="30" as="geometry" />
        </mxCell>
        <mxCell id="gdoQCRrOw-w3T2fE6TBc-23" value="" style="edgeStyle=orthogonalEdgeStyle;rounded=0;orthogonalLoop=1;jettySize=auto;html=1;strokeColor=#000000;" edge="1" parent="1" source="gdoQCRrOw-w3T2fE6TBc-9" target="gdoQCRrOw-w3T2fE6TBc-10">
          <mxGeometry relative="1" as="geometry" />
        </mxCell>
        <mxCell id="gdoQCRrOw-w3T2fE6TBc-9" value="&lt;font color=&quot;#000000&quot;&gt;Kesimpulan&lt;/font&gt;" style="rounded=0;whiteSpace=wrap;html=1;strokeColor=#000000;fillColor=#FFFFFF;" vertex="1" parent="1">
          <mxGeometry x="342.5" y="540" width="110" height="30" as="geometry" />
        </mxCell>
        <mxCell id="gdoQCRrOw-w3T2fE6TBc-10" value="&lt;font style=&quot;font-size: 13px;&quot; color=&quot;#000000&quot;&gt;Selesai&lt;/font&gt;" style="ellipse;whiteSpace=wrap;html=1;fillColor=#FFFFFF;strokeColor=#000000;" vertex="1" parent="1">
          <mxGeometry x="357.5" y="590" width="80" height="40" as="geometry" />
        </mxCell>
        <mxCell id="gdoQCRrOw-w3T2fE6TBc-13" value="&lt;font color=&quot;#000000&quot;&gt;TIDAK&lt;/font&gt;" style="text;html=1;strokeColor=none;fillColor=none;align=center;verticalAlign=middle;whiteSpace=wrap;rounded=0;" vertex="1" parent="1">
          <mxGeometry x="30" y="430" width="60" height="30" as="geometry" />
        </mxCell>
        <mxCell id="gdoQCRrOw-w3T2fE6TBc-15" value="&lt;font color=&quot;#000000&quot;&gt;YA&lt;/font&gt;" style="text;html=1;strokeColor=none;fillColor=none;align=center;verticalAlign=middle;whiteSpace=wrap;rounded=0;" vertex="1" parent="1">
          <mxGeometry x="130" y="480" width="60" height="30" as="geometry" />
        </mxCell>
        <mxCell id="gdoQCRrOw-w3T2fE6TBc-32" value="&lt;font color=&quot;#000000&quot;&gt;TIDAK&lt;/font&gt;" style="text;html=1;strokeColor=none;fillColor=none;align=center;verticalAlign=middle;whiteSpace=wrap;rounded=0;" vertex="1" parent="1">
          <mxGeometry x="290" y="350" width="60" height="30" as="geometry" />
        </mxCell>
        <mxCell id="gdoQCRrOw-w3T2fE6TBc-33" value="&lt;font color=&quot;#000000&quot;&gt;YA&lt;/font&gt;" style="text;html=1;strokeColor=none;fillColor=none;align=center;verticalAlign=middle;whiteSpace=wrap;rounded=0;" vertex="1" parent="1">
          <mxGeometry x="387.5" y="410" width="60" height="30" as="geometry" />
        </mxCell>
      </root>
    </mxGraphModel>
  </diagram>
</mxfile>
